<?xml version="1.0" encoding="UTF-8" standalone="no"?>
<svg width="427px" height="278px" viewBox="0 0 427 278" version="1.1" xmlns="http://www.w3.org/2000/svg" xmlns:xlink="http://www.w3.org/1999/xlink">
    <!-- Generator: Sketch 40.1 (33804) - http://www.bohemiancoding.com/sketch -->
    <title>BIGVU LOGO</title>
    <desc>Created with Sketch.</desc>
    <defs>
        <polygon id="path-1" points="0 277.312296 426.536874 277.312296 426.536874 0.202903704 0 0.202903704"></polygon>
    </defs>
    <g id="Page-1" stroke="none" stroke-width="1" fill="none" fill-rule="evenodd">
        <g id="Logo-Mauve">
            <g id="BIGVU-LOGO">
                <g id="Group-3">
                    <mask id="mask-2" fill="white">
                        <use xlink:href="#path-1"></use>
                    </mask>
                    <g id="Clip-2"></g>
                    <rect id="Rectangle-10" fill="#FFFFFF" mask="url(#mask-2)" x="9" y="12" width="413" height="255"></rect>
                    <path d="M213.2296,264.979556 C218.53997,265.012844 223.696578,265.030281 228.759659,265.030281 C327.63083,265.030281 395.173985,258.757704 414.158163,256.76037 L414.158163,20.8483556 C394.19117,18.7511556 320.546637,11.9269333 213.310444,12.6307556 C208.000074,12.5958815 202.841881,12.5800296 197.777215,12.5800296 C98.9028741,12.5800296 31.3613037,18.8526074 12.3771259,20.8467704 L12.3771259,256.76037 C31.3692296,258.756119 98.9694519,265.030281 197.780385,265.030281 C202.851393,265.030281 207.992148,265.012844 213.2296,264.979556 L213.2296,264.979556 Z M228.766,277.407407 C228.759659,277.407407 228.767585,277.407407 228.759659,277.407407 C223.66963,277.407407 218.487659,277.391556 213.2296,277.356681 C208.046044,277.391556 202.878341,277.407407 197.780385,277.407407 C80.0566074,277.407407 6.16954074,268.535126 5.43718519,268.44477 L0,267.778993 L0,9.85351111 L5.43718519,9.16395556 C6.20124444,9.07042963 86.4924593,-0.561155556 213.310444,0.25362963 C218.494,0.220340741 223.663289,0.202903704 228.76283,0.202903704 C346.481852,0.202903704 420.365748,9.0736 421.098104,9.16395556 L426.536874,9.82814815 L426.536874,267.7568 L421.099689,268.44477 C420.365748,268.535126 346.486607,277.407407 228.766,277.407407 L228.766,277.407407 Z" id="Fill-1" fill="#AA58EE" mask="url(#mask-2)"></path>
                </g>
                <path d="M62.0552444,151.485052 C61.6763852,164.204578 62.3247259,189.122104 62.0552444,206.966533 C91.5349333,209.876933 93.1882815,147.977037 62.0552444,151.485052" id="Fill-4" fill="#AA58EE"></path>
                <path d="M61.8079556,77.5108 L61.8079556,125.066356 C88.7561037,127.536074 88.7561037,74.925363 61.8079556,77.5108" id="Fill-5" fill="#AA58EE"></path>
                <path d="M359.277467,237.614504 C341.079541,236.267096 314.892281,227.3108 314.892281,163.903393 C314.892281,100.495985 315.684874,60.073763 315.684874,60.073763 C315.684874,60.073763 338.670059,56.1108 340.255244,55.3182074 C341.84043,54.5256148 339.462652,117.14043 339.462652,152.807096 C339.462652,188.473763 342.905674,202.74043 352.416785,202.74043 C361.927896,202.74043 362.993141,192.436726 362.993141,171.036726 L362.993141,50.5626519 C362.993141,50.5626519 380.553822,47.3922815 388.083452,44.2219111 C388.083452,44.2219111 386.859689,104.869511 387.947126,147.258948 C389.532311,209.08117 380.677467,239.199689 359.277467,237.614504 L359.277467,237.614504 Z M280.414504,219.384874 L252.673763,217.799689 L224.933022,68.7922815 C224.933022,68.7922815 243.955244,69.9811704 252.673763,68.7922815 L266.94043,181.736726 L282.395985,65.6219111 C282.395985,65.6219111 293.492281,65.2256148 308.947837,61.6589481 C308.551541,62.0552444 280.414504,219.384874 280.414504,219.384874 L280.414504,219.384874 Z M221.911659,211.195807 C125.215363,261.580919 115.585363,37.5134074 218.600207,71.6995111 L215.360089,97.0624741 C160.427081,75.6545481 155.460696,185.829674 196.047778,190.5884 L198.133881,190.192104 L198.133881,156.242193 L187.037585,156.242193 L187.037585,133.521733 C198.133881,133.521733 212.400548,132.729141 221.911659,133.125437 L221.911659,211.195807 L221.911659,211.195807 Z M115.158948,223.875704 L114.631081,62.7162667 C124.142193,64.3014519 138.936726,66.4145037 138.936726,66.4145037 L139.994044,220.177467 L115.158948,223.875704 L115.158948,223.875704 Z M38.2774667,242.568207 L38.0793185,47.5904296 C94.4976444,37.9905481 127.597896,104.072163 89.0033926,136.688933 C137.576637,172.01003 92.2149778,247.082815 38.2774667,242.568207 L38.2774667,242.568207 Z M402.798726,26.7896296 C402.129778,26.7119556 334.724533,19.0475852 227.01437,19.0475852 C222.34917,19.0475852 217.718844,19.0618519 212.974385,19.0919704 C96.9388296,18.386563 23.2847852,26.7087852 22.5857185,26.7896296 L17.4227704,27.3856593 L17.4227704,250.243674 L22.6364444,250.819096 C23.3069778,250.89677 91.0308444,258.562726 198.745763,258.562726 C203.409378,258.562726 208.196637,258.906711 212.941096,258.878178 C217.750548,258.906711 222.553659,259.27923 227.209348,259.27923 L227.215689,259.27923 C334.927437,259.27923 402.129778,251.255022 402.800311,251.177348 L407.378326,250.224652 L407.378326,27.3650519 L402.798726,26.7896296 L402.798726,26.7896296 Z" id="Fill-6" fill="#AA58EE"></path>
            </g>
        </g>
    </g>
</svg>